<svg width="67" height="68" viewBox="0 0 67 68" fill="none" xmlns="http://www.w3.org/2000/svg">
<path fill-rule="evenodd" clip-rule="evenodd" d="M64.8386 34.3864C64.8516 29.6925 63.7963 25.057 61.7523 20.8298L63.6996 19.8934C65.8853 24.4124 67.0138 29.3682 66.9999 34.3864C67.0042 40.8314 65.1418 47.1401 61.6371 52.5526C58.1324 57.9651 53.1349 62.2505 47.2465 64.8925C41.3582 67.5346 34.8303 68.4206 28.4492 67.4439C22.068 66.4672 16.1059 63.6693 11.2809 59.3874L9.04077 61.6184C8.90227 61.756 8.72898 61.8535 8.53937 61.9006C8.34975 61.9477 8.15089 61.9426 7.96396 61.8858C7.77702 61.829 7.60901 61.7227 7.47779 61.5782C7.34658 61.4336 7.25708 61.2563 7.21881 61.065L5.69835 53.4398C5.66358 53.2656 5.67241 53.0856 5.72405 52.9157C5.77568 52.7458 5.86853 52.5912 5.99434 52.4657C6.12016 52.3402 6.27506 52.2477 6.4453 52.1963C6.61555 52.1449 6.79586 52.1362 6.97026 52.1711L14.6093 53.6998C14.8012 53.7382 14.9791 53.8279 15.1239 53.9594C15.2687 54.0909 15.375 54.2592 15.4315 54.4462C15.4879 54.6333 15.4924 54.8322 15.4445 55.0217C15.3966 55.2111 15.298 55.384 15.1594 55.5219L12.8122 57.8608C17.3342 61.8405 22.9105 64.4327 28.8719 65.3262C34.8332 66.2198 40.9262 65.3767 46.4194 62.8981C51.9126 60.4196 56.5725 56.411 59.8398 51.3535C63.107 46.296 64.8428 40.4045 64.8386 34.3864ZM8.13411 54.6049L8.94351 58.6667L12.2038 55.4194L8.13411 54.6049ZM2.16141 34.3864C2.14841 39.0804 3.20374 43.7159 5.24772 47.9431L3.30041 48.8795C1.11471 44.3605 -0.0137939 39.4047 0.000127248 34.3864C-0.00121343 27.9417 1.86313 21.6338 5.36878 16.2221C8.87443 10.8104 13.872 6.52544 19.76 3.88296C25.6479 1.24048 32.1754 0.353086 38.5567 1.32758C44.9381 2.30208 50.9013 5.09694 55.7288 9.37579L57.9592 7.15447C58.0977 7.01687 58.271 6.91934 58.4606 6.87226C58.6503 6.82517 58.8491 6.83029 59.036 6.88708C59.223 6.94386 59.391 7.05018 59.5222 7.19472C59.6534 7.33926 59.7429 7.51662 59.7812 7.70791L61.3017 15.3331C61.3364 15.5073 61.3276 15.6873 61.276 15.8572C61.2243 16.0271 61.1315 16.1817 61.0057 16.3072C60.8798 16.4327 60.7249 16.5252 60.5547 16.5766C60.3845 16.628 60.2041 16.6367 60.0297 16.6018L52.3907 15.0731C52.1988 15.0347 52.0209 14.9449 51.8761 14.8135C51.7313 14.682 51.625 14.5137 51.5686 14.3266C51.5121 14.1396 51.5076 13.9407 51.5555 13.7512C51.6034 13.5618 51.702 13.3889 51.8406 13.251L54.1975 10.9023C49.6731 6.92571 44.0956 4.33648 38.134 3.44518C32.1725 2.55387 26.0799 3.39833 20.5871 5.87728C15.0942 8.35623 10.4342 12.3644 7.16604 17.4212C3.89784 22.4779 2.16016 28.3685 2.16141 34.3864ZM58.8659 14.168L58.0565 10.1062L54.7962 13.3491L58.8659 14.168ZM48.0012 53.9976H47.8413C47.1383 53.979 46.4468 53.8156 45.81 53.5176C45.1733 53.2197 44.6051 52.7935 44.1411 52.266L35.4852 42.5241C33.9654 42.9236 32.3652 42.9011 30.8572 42.4593C29.3492 42.0174 27.9907 41.1729 26.9281 40.0168C25.8656 38.8607 25.1395 37.4369 24.828 35.899C24.5166 34.3612 24.6316 32.7676 25.1608 31.2902C25.2218 31.1185 25.3254 30.9651 25.462 30.8442C25.5985 30.7232 25.7634 30.6388 25.9415 30.5987C26.1195 30.5587 26.3048 30.5643 26.4801 30.615C26.6553 30.6657 26.8149 30.76 26.9438 30.8889L29.4779 33.4188L32.534 30.3678L29.9999 27.8369C29.871 27.7081 29.7768 27.5489 29.7262 27.374C29.6755 27.1992 29.67 27.0144 29.7101 26.8368C29.7502 26.6593 29.8347 26.4947 29.9556 26.3585C30.0766 26.2223 30.2301 26.1189 30.4019 26.0579C31.8817 25.5295 33.4779 25.4145 35.0184 25.7254C36.5588 26.0363 37.985 26.7613 39.143 27.8221C40.301 28.8829 41.1468 30.2392 41.5892 31.7447C42.0317 33.2503 42.0539 34.8478 41.6535 36.3651L51.4128 45.0055C52.1949 45.6973 52.7478 46.6102 52.9981 47.623C53.2483 48.6359 53.1841 49.7008 52.814 50.6764C52.4439 51.6519 51.7853 52.4921 50.9257 53.0853C50.0661 53.6784 49.0462 53.9966 48.0012 53.9976ZM35.4712 40.2737C35.5876 40.2332 35.7099 40.2124 35.8332 40.2122C35.9859 40.2121 36.1369 40.2444 36.2763 40.3069C36.4156 40.3694 36.5401 40.4607 36.6415 40.5747L45.7578 50.8355C46.0271 51.1414 46.3569 51.3884 46.7264 51.5611C47.0959 51.7337 47.4972 51.8283 47.905 51.8388C48.3131 51.8548 48.72 51.7854 49.0997 51.6351C49.4793 51.4848 49.8233 51.2569 50.1095 50.966C50.3981 50.6782 50.6246 50.3345 50.7752 49.956C50.9258 49.5776 50.9972 49.1723 50.985 48.7653C50.9729 48.3582 50.8774 47.958 50.7046 47.5891C50.5317 47.2203 50.2851 46.8906 49.9799 46.6205L39.7008 37.5205C39.5397 37.3779 39.4249 37.1905 39.3711 36.9823C39.3174 36.7741 39.3272 36.5547 39.3993 36.3521C39.7604 35.3487 39.8667 34.2716 39.7089 33.2171C39.551 32.1626 39.1338 31.1637 38.4946 30.3095C37.8553 29.4554 37.0141 28.7727 36.0459 28.3226C35.0778 27.8724 34.013 27.6689 32.9468 27.73L34.8271 29.6061C35.0297 29.8085 35.1435 30.0828 35.1435 30.3689C35.1435 30.6549 35.0297 30.9293 34.8271 31.1316L30.2419 35.7091C30.0355 35.904 29.7621 36.0126 29.4779 36.0126C29.1938 36.0126 28.9204 35.904 28.7139 35.7091L26.8347 33.8319C26.7734 34.8964 26.9773 35.9594 27.4282 36.9259C27.8791 37.8924 28.5629 38.7323 29.4185 39.3705C30.274 40.0086 31.2747 40.4251 32.3309 40.5827C33.3872 40.7403 34.4661 40.6342 35.4712 40.2737ZM48.764 39.7807C50.0055 36.306 50.0255 32.513 48.8209 29.0254C47.6162 25.5379 45.2585 22.5634 42.1356 20.5913C39.0126 18.6192 35.3104 17.7668 31.6377 18.1743C27.9651 18.5818 24.5407 20.225 21.9277 22.8336C19.3148 25.4422 17.6689 28.8609 17.2607 32.5274C16.8525 36.1939 17.7063 39.8899 19.6817 43.0077C21.6571 46.1254 24.6365 48.4791 28.1299 49.6818C31.6233 50.8845 35.4227 50.8645 38.9032 49.625L37.3406 47.8655C34.3372 48.7258 31.1327 48.5657 28.2305 47.4102C25.3283 46.2547 22.8928 44.1694 21.3067 41.4819C19.7207 38.7943 19.0739 35.6569 19.4681 32.5625C19.8622 29.4682 21.275 26.5922 23.4844 24.3865C25.6937 22.1809 28.5745 20.7705 31.674 20.377C34.7736 19.9835 37.9163 20.6291 40.6083 22.2125C43.3003 23.7959 45.3891 26.2273 46.5465 29.1247C47.7039 32.0221 47.8643 35.2213 47.0026 38.2196L48.764 39.7807ZM48.5814 49.4427C48.7324 49.2918 48.8352 49.0996 48.8768 48.8903C48.9184 48.6811 48.8969 48.4642 48.8151 48.2672C48.7333 48.0701 48.5948 47.9017 48.4171 47.7832C48.2394 47.6647 48.0305 47.6015 47.8168 47.6015C47.6032 47.6015 47.3943 47.6647 47.2166 47.7832C47.0389 47.9017 46.9004 48.0701 46.8186 48.2672C46.7367 48.4642 46.7153 48.6811 46.7569 48.8903C46.7985 49.0996 46.9013 49.2918 47.0523 49.4427C47.1526 49.543 47.2718 49.6226 47.403 49.6769C47.5342 49.7312 47.6748 49.7591 47.8168 49.7591C47.9588 49.7591 48.0995 49.7312 48.2307 49.6769C48.3618 49.6226 48.481 49.543 48.5814 49.4427ZM56.343 38.8503C55.7476 39.4449 54.9403 39.7795 54.0981 39.7807C53.8833 39.7695 53.6707 39.8275 53.4915 39.9462C53.3123 40.0649 53.176 40.2379 53.1028 40.4398C52.846 41.2456 52.5385 42.0343 52.1821 42.8014L50.4974 41.3104C50.6973 40.8153 50.881 40.3136 51.0377 39.8055C51.2446 39.1701 51.6478 38.6166 52.1895 38.2245C52.7313 37.8323 53.3836 37.6218 54.0527 37.623C54.1894 37.6273 54.3255 37.6043 54.4532 37.5555C54.5809 37.5066 54.6975 37.4328 54.7962 37.3383C54.895 37.2439 54.9738 37.1307 55.0282 37.0055C55.0825 36.8802 55.1113 36.7454 55.1128 36.6089V32.1641C55.1125 31.8954 55.0056 31.6378 54.8154 31.4477C54.6252 31.2576 54.3672 31.1505 54.0981 31.15C53.4151 31.1567 52.7481 30.9443 52.1952 30.544C51.6422 30.1437 51.2327 29.5767 51.0269 28.9265C50.6983 27.8774 50.2751 26.8602 49.7626 25.8874C49.4475 25.2859 49.3332 24.5996 49.4364 23.9286C49.5396 23.2577 49.855 22.6372 50.3364 22.1579C50.3428 22.1496 50.35 22.142 50.358 22.1352C50.5479 21.9446 50.6545 21.6866 50.6545 21.4178C50.6545 21.1489 50.5479 20.891 50.358 20.7004L47.209 17.5577C47.0153 17.3734 46.758 17.2706 46.4904 17.2706C46.2228 17.2706 45.9655 17.3734 45.7718 17.5577C45.2922 18.046 44.668 18.3674 43.9914 18.4745C43.3148 18.5815 42.6217 18.4685 42.0144 18.1521C41.0394 17.6407 40.0202 17.2182 38.9691 16.8899C38.3179 16.6845 37.7499 16.2756 37.349 15.7236C36.948 15.1716 36.7352 14.5057 36.7419 13.8238C36.7416 13.5552 36.6347 13.2976 36.4445 13.1075C36.2543 12.9174 35.9963 12.8103 35.7272 12.8097H31.2728C31.0037 12.8103 30.7457 12.9174 30.5555 13.1075C30.3653 13.2976 30.2584 13.5552 30.2581 13.8238C30.2725 14.4995 30.0675 15.1616 29.6736 15.7111C29.2797 16.2607 28.7182 16.6682 28.073 16.8726C27.0074 17.2026 25.9743 17.6294 24.9867 18.1478C24.3798 18.464 23.6871 18.5772 23.0109 18.4708C22.3346 18.3643 21.7105 18.0439 21.2304 17.5566C21.0371 17.3707 20.7791 17.2669 20.5107 17.2669C20.2423 17.2669 19.9843 17.3707 19.791 17.5566L16.6431 20.7004C16.4532 20.891 16.3466 21.1489 16.3466 21.4178C16.3466 21.6866 16.4532 21.9446 16.6431 22.1352L16.6669 22.1589C17.1472 22.6385 17.4617 23.2586 17.5647 23.929C17.6677 24.5993 17.5538 25.285 17.2396 25.8863C16.7264 26.8598 16.3025 27.8777 15.9731 28.9276C15.7673 29.5776 15.3577 30.1445 14.8048 30.5446C14.2518 30.9447 13.5848 31.1569 12.9019 31.15C12.6328 31.1505 12.3749 31.2576 12.1846 31.4477C11.9944 31.6378 11.8875 31.8954 11.8872 32.1641V36.6089C11.8875 36.8776 11.9944 37.1352 12.1846 37.3253C12.3749 37.5154 12.6328 37.6224 12.9019 37.623C13.5849 37.6163 14.252 37.8287 14.8049 38.229C15.3578 38.6293 15.7673 39.1963 15.9731 39.8465C16.3018 40.8955 16.7249 41.9127 17.2374 42.8855C17.5526 43.4871 17.6668 44.1734 17.5636 44.8443C17.4604 45.5153 17.145 46.1357 16.6636 46.6151C16.6573 46.6234 16.65 46.631 16.642 46.6377C16.4521 46.8284 16.3455 47.0863 16.3455 47.3552C16.3455 47.624 16.4521 47.882 16.642 48.0726L19.791 51.2152C19.9847 51.3995 20.242 51.5023 20.5096 51.5023C20.7772 51.5023 21.0345 51.3995 21.2283 51.2152C21.5276 50.9131 21.8838 50.6729 22.2764 50.5085C22.669 50.3441 23.0902 50.2587 23.516 50.2572C24.0282 50.2571 24.5327 50.3819 24.9856 50.6208C25.9606 51.1322 26.9798 51.5547 28.0309 51.883C28.6821 52.0885 29.2501 52.4973 29.6511 53.0493C30.052 53.6013 30.2648 54.2673 30.2581 54.9491C30.2584 55.2178 30.3653 55.4754 30.5555 55.6655C30.7457 55.8556 31.0037 55.9626 31.2728 55.9632H35.7272C35.9963 55.9626 36.2543 55.8556 36.4445 55.6655C36.6347 55.4754 36.7416 55.2178 36.7419 54.9491C36.7352 54.2673 36.948 53.6013 37.349 53.0493C37.7499 52.4973 38.3179 52.0885 38.9691 51.883C39.463 51.7288 39.9536 51.5486 40.4356 51.3512L41.9355 53.0385C41.1801 53.3865 40.4042 53.6884 39.6121 53.9425C39.4028 54.0144 39.2215 54.1503 39.0942 54.3311C38.9669 54.5119 38.9001 54.7281 38.9032 54.9491C38.9024 55.7899 38.5675 56.5959 37.9721 57.1906C37.3767 57.7852 36.5694 58.1197 35.7272 58.1209H31.2728C30.4306 58.1197 29.6233 57.7852 29.0279 57.1906C28.4325 56.5959 28.0977 55.7899 28.0968 54.9491C28.099 54.7289 28.0317 54.5136 27.9045 54.3337C27.7773 54.1538 27.5965 54.0184 27.3879 53.9469C26.2114 53.5798 25.0706 53.1072 23.9796 52.5347C23.7803 52.4365 23.555 52.4036 23.3359 52.4408C23.1168 52.478 22.9151 52.5833 22.7595 52.7418C22.1541 53.3195 21.3488 53.642 20.5112 53.642C19.6737 53.642 18.8684 53.3195 18.263 52.7418L15.1151 49.5981C14.5236 49.006 14.1898 48.205 14.1861 47.3689C14.1825 46.5327 14.5093 45.7288 15.0956 45.1317L15.1172 45.109C15.2765 44.9538 15.3825 44.7523 15.4199 44.5333C15.4574 44.3143 15.4244 44.0891 15.3258 43.8899C14.7526 42.8017 14.2792 41.6639 13.9112 40.4905C13.8396 40.281 13.7034 40.0994 13.5221 39.9719C13.3408 39.8444 13.1237 39.7774 12.9019 39.7807C12.0597 39.7795 11.2524 39.4449 10.657 38.8503C10.0616 38.2557 9.72677 37.4496 9.72591 36.6089V32.1641C9.72677 31.3233 10.0616 30.5172 10.657 29.9226C11.2524 29.328 12.0597 28.9934 12.9019 28.9923C13.1234 28.9957 13.3403 28.9289 13.5215 28.8016C13.7026 28.6742 13.8387 28.4928 13.9102 28.2835C14.2788 27.1094 14.753 25.9709 15.3269 24.8819C15.4251 24.6828 15.4578 24.4577 15.4201 24.2389C15.3825 24.0202 15.2764 23.8189 15.1172 23.6639L15.0945 23.6402C14.5089 23.0428 14.1827 22.2391 14.1865 21.4033C14.1904 20.5675 14.524 19.7668 15.1151 19.1749L18.263 16.0268C18.8681 15.4498 19.6728 15.1278 20.5096 15.1278C21.3465 15.1278 22.1511 15.4498 22.7563 16.0268C22.9111 16.1876 23.1132 16.2952 23.3332 16.334C23.5533 16.3728 23.78 16.3408 23.9806 16.2426C25.0853 15.6626 26.2411 15.1852 27.4333 14.8164C27.6299 14.7484 27.8 14.62 27.9192 14.4497C28.0383 14.2794 28.1005 14.0758 28.0968 13.8681C28.0927 13.4484 28.1717 13.0321 28.3293 12.643C28.4868 12.2539 28.7199 11.8997 29.0151 11.6009C29.3102 11.302 29.6616 11.0643 30.0491 10.9015C30.4365 10.7387 30.8524 10.6539 31.2728 10.6521H35.7272C36.5694 10.6532 37.3767 10.9878 37.9721 11.5824C38.5675 12.177 38.9024 12.9831 38.9032 13.8238C38.901 14.0441 38.9683 14.2594 39.0955 14.4393C39.2228 14.6192 39.4035 14.7545 39.6121 14.8261C40.7886 15.1931 41.9294 15.6658 43.0205 16.2383C43.2196 16.337 43.445 16.3701 43.6642 16.3329C43.8835 16.2957 44.0852 16.19 44.2405 16.0311C44.846 15.4534 45.6512 15.131 46.4888 15.131C47.3263 15.131 48.1316 15.4534 48.737 16.0311L51.885 19.1749C52.4765 19.7669 52.8103 20.5679 52.8139 21.4041C52.8176 22.2403 52.4907 23.0441 51.9044 23.6413L51.8828 23.6639C51.7235 23.8191 51.6176 24.0206 51.5801 24.2396C51.5426 24.4586 51.5756 24.6838 51.6742 24.883C52.2474 25.9713 52.7208 27.109 53.0888 28.2824C53.1604 28.492 53.2966 28.6735 53.478 28.801C53.6593 28.9285 53.8764 28.9955 54.0981 28.9923C54.9403 28.9934 55.7476 29.328 56.343 29.9226C56.9384 30.5172 57.2733 31.3233 57.2741 32.1641V36.6089C57.2733 37.4496 56.9384 38.2557 56.343 38.8503Z" fill="black"/>
</svg>
